Coordinates
version=1
nRows=24
nColumns=24
inDegrees=yes

Units are S.I. units (second, meters, Newtons, ...)
Angles are in degrees.

endheader
time	pelvis_tilt	pelvis_list	pelvis_rotation	pelvis_tx	pelvis_ty	pelvis_tz	hip_flexion_r	hip_adduction_r	hip_rotation_r	knee_angle_r	ankle_angle_r	subtalar_angle_r	mtp_angle_r	hip_flexion_l	hip_adduction_l	hip_rotation_l	knee_angle_l	ankle_angle_l	subtalar_angle_l	mtp_angle_l	lumbar_extension	lumbar_bending	lumbar_rotation
      4.29500000	    -11.61603000	      4.55427225	     -4.80794295	      2.48203679	     -0.00317873	     -0.42315426	     34.40030168	     -8.34828511	     -5.92863778	    -51.95263584	     -6.58657803	      5.69584994	     27.75290920	      7.80405744	      8.96904017	     -2.46836874	     -4.22783284	     -2.88934218	      3.21561115	      7.48438524	     11.25874091	     -4.49563805	     -3.40057728
      4.30000000	    -11.61901673	      4.37688835	     -4.61187573	      2.48711494	     -0.00335718	     -0.42345004	     34.66364120	     -8.10965398	     -6.20829052	    -50.91419569	     -6.32915421	      5.45702546	     27.13387305	      7.46219981	      8.84908176	     -2.16057171	     -4.23229621	     -2.62627368	      3.19869603	      7.40871728	     11.19971517	     -4.32183894	     -3.54776436
      4.30500000	    -11.56697720	      4.20176907	     -4.42859142	      2.49221984	     -0.00351514	     -0.42377806	     34.84694254	     -7.88612135	     -6.48128698	    -49.86085964	     -5.97700524	      5.46310553	     26.12035877	      7.05479841	      8.73742497	     -1.84963270	     -4.23215337	     -2.35022827	      3.15851369	      7.25867480	     11.08383228	     -4.14277087	     -3.67764559
      4.31000000	    -11.63356777	      4.06659128	     -4.24520717	      2.49722836	     -0.00382762	     -0.42398552	     35.16805898	     -7.66670709	     -6.73226147	    -48.75412950	     -5.81170399	      5.14381619	     25.71417866	      6.80476637	      8.64170701	     -1.59646802	     -4.25148125	     -2.12680328	      3.17336779	      7.30372368	     11.09419424	     -4.00993265	     -3.80408972
      4.31500000	    -11.58018501	      3.89044163	     -4.05665603	      2.50231192	     -0.00400962	     -0.42426348	     35.30777357	     -7.44101732	     -7.01848293	    -47.61092769	     -5.53404245	      5.11626927	     24.84646233	      6.40027284	      8.51701979	     -1.30194757	     -4.24617883	     -1.89663677	      3.15512678	      7.27941572	     10.97647676	     -3.83495845	     -3.94519894
      4.32000000	    -11.61013740	      3.74637709	     -3.86311399	      2.50730092	     -0.00433206	     -0.42447052	     35.54376766	     -7.22602453	     -7.27878691	    -46.44098967	     -5.33732182	      4.95753658	     24.23013066	      6.11728784	      8.41022612	     -1.02896202	     -4.27977299	     -1.66659533	      3.16090093	      7.34478722	     10.94073843	     -3.69763013	     -4.07935931
      4.32500000	    -11.70873897	      3.62524962	     -3.73821311	      2.51232059	     -0.00473459	     -0.42461275	     35.85174718	     -6.98452475	     -7.44945607	    -45.21372751	     -5.26024582	      4.79336526	     23.97504619	      5.90462279	      8.31328250	     -0.83420892	     -4.29534920	     -1.47570038	      3.15241302	      7.40946015	     10.99680627	     -3.55244850	     -4.12181949
      4.33000000	    -11.71690606	      3.46631539	     -3.51074197	      2.51736162	     -0.00503149	     -0.42484008	     36.00226112	     -6.78503307	     -7.78696125	    -43.95095610	     -5.14761073	      4.59282211	     23.49118083	      5.58695342	      8.19245747	     -0.56135767	     -4.31091616	     -1.28089174	      3.17222330	      7.49000779	     10.94243284	     -3.40886076	     -4.31160604
      4.33500000	    -11.64501647	      3.31243653	     -3.34553065	      2.52238621	     -0.00526584	     -0.42499580	     36.05558582	     -6.55488596	     -8.00826939	    -42.67670862	     -4.94093462	      4.72945909	     22.56279756	      5.17260791	      8.06880223	     -0.28990215	     -4.30542099	     -1.10623781	      3.16056571	      7.58049992	     10.80219877	     -3.26165203	     -4.43481476
      4.34000000	    -11.76299053	      3.19807539	     -3.18412984	      2.52737095	     -0.00573875	     -0.42509680	     36.32171681	     -6.33153017	     -8.20146580	    -41.35824344	     -4.93448048	      4.60567188	     22.23856852	      4.99514920	      7.97066885	     -0.07440867	     -4.34323721	     -0.91148513	      3.17798195	      7.66983480	     10.87271409	     -3.14159438	     -4.51300890
      4.34500000	    -11.81822249	      3.05869022	     -3.01111127	      2.53235392	     -0.00613512	     -0.42522111	     36.48055312	     -6.10120799	     -8.40820111	    -39.99136319	     -4.93702892	      4.61530708	     21.87059565	      4.74618123	      7.84840891	      0.15833490	     -4.37794152	     -0.71706880	      3.20925901	      7.76831729	     10.86996610	     -3.00088446	     -4.62516931
      4.35000000	    -11.85040274	      2.91379580	     -2.84809392	      2.53733251	     -0.00652611	     -0.42532254	     36.58725847	     -5.85416795	     -8.57740966	    -38.58576376	     -4.94025764	      4.68985756	     21.45121434	      4.47888364	      7.71737925	      0.38310318	     -4.42678306	     -0.50511073	      3.23795669	      7.88239868	     10.83887846	     -2.85707515	     -4.74861619
      4.35500000	    -11.89501073	      2.77489214	     -2.68687778	      2.54231522	     -0.00693278	     -0.42542842	     36.69036120	     -5.61013001	     -8.72432680	    -37.15614620	     -4.99253414	      4.81450539	     21.03186686	      4.22414698	      7.59161584	      0.57690202	     -4.46723430	     -0.30926138	      3.28413240	      8.00006820	     10.82138499	     -2.71368443	     -4.85211750
      4.36000000	    -12.01722489	      2.67723106	     -2.59067495	      2.54730778	     -0.00747809	     -0.42548854	     36.88264833	     -5.36738433	     -8.78621600	    -35.70731938	     -5.09782928	      5.02355861	     20.82765716	      4.06356558	      7.50430543	      0.69551872	     -4.51970845	     -0.11503845	      3.28141528	      8.08979067	     10.90152439	     -2.58449522	     -4.85869654
      4.36500000	    -12.02977750	      2.50475355	     -2.38446973	      2.55227774	     -0.00781278	     -0.42560393	     36.88258154	     -5.10922065	     -8.94312643	    -34.19265232	     -5.24210712	      5.15388655	     20.41444478	      3.78289286	      7.33646944	      0.90431929	     -4.57451915	      0.08829981	      3.42555841	      8.26414220	     10.83748290	     -2.42511766	     -5.04089640
      4.37000000	    -12.10150832	      2.36280087	     -2.24457549	      2.55727162	     -0.00826455	     -0.42569655	     36.95105005	     -4.84131939	     -8.99964948	    -32.67103780	     -5.40314406	      5.38435139	     20.09195608	      3.57007181	      7.19927397	      1.02311228	     -4.62915370	      0.28681541	      3.52212954	      8.42963748	     10.85253705	     -2.26736241	     -5.11585732
      4.37500000	    -12.21767996	      2.24297852	     -2.13308166	      2.56227625	     -0.00878069	     -0.42575445	     37.06212323	     -4.57916058	     -9.02324777	    -31.13766480	     -5.60063664	      5.65257497	     19.87307166	      3.40927752	      7.08145691	      1.12002959	     -4.68896693	      0.46934095	      3.59236506	      8.56799296	     10.91943918	     -2.12283634	     -5.15018976
      4.38000000	    -12.30852010	      2.09882509	     -1.98833847	      2.56728331	     -0.00925309	     -0.42583261	     37.10777198	     -4.30419654	     -9.02614486	    -29.56683042	     -5.79675530	      5.89271990	     19.64624497	      3.22880310	      6.93725208	      1.21843281	     -4.76347901	      0.66259340	      3.71910659	      8.74909128	     10.95354133	     -1.96212836	     -5.24235142
      4.38500000	    -12.33679132	      1.93928086	     -1.81514437	      2.57227231	     -0.00965405	     -0.42592739	     37.05358912	     -4.02353686	     -8.97997916	    -27.96826688	     -5.95954035	      6.10902036	     19.37547640	      2.98968446	      6.77641044	      1.27174401	     -4.84705542	      0.86547880	      3.94419665	      9.02182896	     10.90997237	     -1.79820943	     -5.38307028
      4.39000000	    -12.41929363	      1.79831789	     -1.68357358	      2.57730473	     -0.01013137	     -0.42599858	     37.05818089	     -3.73934573	     -8.88288987	    -26.37628993	     -6.12748217	      6.35618463	     19.13325704	      2.80509015	      6.63213938	      1.29698567	     -4.92320446	      1.04345603	      4.12466532	      9.26792056	     10.93620361	     -1.63539189	     -5.45944741
      4.39500000	    -12.47987273	      1.65930266	     -1.57187807	      2.58236671	     -0.01059500	     -0.42604317	     37.02437581	     -3.44641425	     -8.73514149	    -24.78002217	     -6.26016411	      6.62607097	     18.85528178	      2.59475725	      6.48667983	      1.25886679	     -4.99191592	      1.20782535	      4.34955635	      9.56246620	     10.94119557	     -1.47119932	     -5.51629322
      4.40000000	    -12.64631943	      1.53991805	     -1.43636082	      2.58742415	     -0.01119370	     -0.42614648	     37.10358577	     -3.18734442	     -8.56196913	    -23.19462767	     -6.41186871	      6.85392686	     18.68791946	      2.51126488	      6.36742220	      1.34261179	     -5.09186950	      1.36843549	      4.42484937	      9.69937811	     11.06240464	     -1.32391656	     -5.58044011
      4.40500000	    -12.69368993	      1.38271103	     -1.26531087	      2.59250461	     -0.01163699	     -0.42622798	     37.00610080	     -2.89947575	     -8.31074385	    -21.56949488	     -6.51030557	      6.95704431	     18.40499788	      2.30195140	      6.19970625	      1.34531910	     -5.19222204	      1.54605238	      4.70628954	      9.98115716	     11.05022838	     -1.16000471	     -5.72838138
      4.41000000	    -12.79904144	      1.24158344	     -1.11280807	      2.59757649	     -0.01217762	     -0.42633851	     36.97801282	     -2.62756627	     -8.01678346	    -19.96936660	     -6.61007066	      7.08725822	     18.13642493	      2.16818754	      6.05188592	      1.37390403	     -5.31800817	      1.71574295	      4.89618969	     10.21192258	     11.09828921	     -0.99803569	     -5.82177632
